<?xml version="1.0" encoding="utf-8"?>
<?xml-stylesheet type="text/xsl" href="rss1.xsl"?>
<rss version="2.0" xmlns:atom="http://www.w3.org/2005/Atom" xmlns:content="http://purl.org/rss/1.0/modules/content/" xmlns:dc="http://purl.org/dc/elements/1.1/" xmlns:media="http://search.yahoo.com/mrss/">
<channel>
 <title>Getty</title>
 <link>http://www.gettyimg.com/</link>
 <atom:link href="http://www.gettyimg.com/" rel="self" type="application/rss+xml" />

 
                <item>
                <title><![CDATA[【Cinema Center】SERIES - Taffy S01 1080p AMZN WEB-DL DDP2.0 H.264-TeamK9]]></title>
                <link><![CDATA[https://sharemania.us/threads/taffy-s01-1080p-amzn-web-dl-ddp2-0-h-264-teamk9.240236/]]></link>
                <description><![CDATA[<article>
<blockquote class="messageText SelectQuoteContainer ugc baseHtml">
<img src="https://images2.imgbox.com/ab/17/GqloXq3K_o.jpg" class="bbCodeImage LbImage" alt="[​IMG]" data-url="https://images2.imgbox.com/ab/17/GqloXq3K_o.jpg" style=""><br>
<br>
Info: The series follows a grey raccoon, Taffy, who gets adopted by Mrs. Muchmore after thinking he is a cat. Her main pet, a blue dobermann named Bentley, is determined to reveal Taffy's secret to Mrs. Muchmore that he really is a Raccoon.<br>
<br>
Media Info
<div class="ToggleTriggerAnchor bbCodeSpoilerContainer">
<button type="button" class="button bbCodeSpoilerButton ToggleTrigger Tooltip JsOnly" data-target="> .SpoilerTarget"><span>Spoiler</span></button>
<div class="SpoilerTarget bbCodeSpoilerText">
<div class="bbCodeBlock bbCodeCode">
<div class="type">Code:</div>
<pre>General
Unique ID                                : 157370863278609942863165474450427320570 (0x7664869A94FF5776EB56253EF8FB98FA)
Complete name                            : Taffy S01E01 Enter the Kitty+A Minor Problem+D.N.A. OK [C95E42AA].mkv
Format                                   : Matroska
Format version                           : Version 4
File size                                : 514 MiB
Duration                                 : 20 min 9 s
Overall bit rate                         : 3 569 kb/s
Movie name                               : Enter the Kitty / A Minor Problem / D.N.A. OK
Encoded date                             : UTC 2024-03-18 13:44:21
Writing application                      : mkvmerge v82.0 ('I'm The President') 64-bit
Writing library                          : libebml v1.4.5 + libmatroska v1.7.1

Video
ID                                       : 1
Format                                   : AVC
Format/Info                              : Advanced Video Codec
Format profile                           : High@L4
Format settings                          : CABAC / 4 Ref Frames
Format settings, CABAC                   : Yes
Format settings, Reference frames        : 4 frames
Codec ID                                 : V_MPEG4/ISO/AVC
Duration                                 : 20 min 9 s
Bit rate                                 : 3 343 kb/s
Width                                    : 1 920 pixels
Height                                   : 1 080 pixels
Display aspect ratio                     : 16:9
Frame rate mode                          : Constant
Frame rate                               : 25.000 FPS
Color space                              : YUV
Chroma subsampling                       : 4:2:0
Bit depth                                : 8 bits
Scan type                                : Progressive
Bits/(Pixel*Frame)                       : 0.064
Stream size                              : 482 MiB (94%)
Default                                  : Yes
Forced                                   : No
Color range                              : Limited
Color primaries                          : BT.709
Transfer characteristics                 : BT.709
Matrix coefficients                      : BT.709

Audio
ID                                       : 2
Format                                   : E-AC-3
Format/Info                              : Enhanced AC-3
Commercial name                          : Dolby Digital Plus
Codec ID                                 : A_EAC3
Duration                                 : 20 min 9 s
Bit rate mode                            : Constant
Bit rate                                 : 224 kb/s
Channel(s)                               : 2 channels
Channel layout                           : L R
Sampling rate                            : 48.0 kHz
Frame rate                               : 31.250 FPS (1536 SPF)
Compression mode                         : Lossy
Stream size                              : 32.3 MiB (6%)
Language                                 : English
Service kind                             : Complete Main
Default                                  : Yes
Forced                                   : No

Menu
00:00:25.000                             : :Part 1
00:06:58.000                             : :Part 2
00:13:31.000                             : :Part 3</pre>
</div></div>
</div><br>
<div class="bbCodeBlock bbCodeVfcHH HiddenContent">
<div class="attribution type">Hidden Content:</div>
<blockquote>You must reply before you can see the hidden data contained here.</blockquote>
</div><br>
Notes: The Title Card for Episode 25 Part B Mirror Mansion on Amazon Prime UK is missing and instead it plays the end credits.
<div class="messageTextEndMarker">&nbsp;</div>
</blockquote>
</article>]]></description>
                <author><![CDATA[TeamK9]]></author>
                </item>

                </channel></rss>